<mxfile host="app.diagrams.net" modified="2023-04-29T17:11:25.794Z" agent="Mozilla/5.0 (Windows NT 10.0; Win64; x64) AppleWebKit/537.36 (KHTML, like Gecko) Chrome/112.0.0.0 Safari/537.36" version="21.2.1" etag="AqLkESPRa61wSKfD5bTC" type="github">
  <diagram name="Page-1" id="rE2AJHZRSUhWGlPEG7_9">
    <mxGraphModel>
      <root>
        <mxCell id="0" />
        <mxCell id="1" parent="0" />
      </root>
    </mxGraphModel>
  </diagram>
</mxfile>
